Patient4_TMGait_0pt5_01_left_04_EMG.mot
version=1
nRows=17
nColumns=33
inDegrees=no
endheader
time	1LAddLong	2LGlutMax	3LGlutMed	4LIliopsoas	5LSemiMemb	6LBicFemLong	7LRecFem	8LVastMed	9LVastLat	10LGasMed	11LTibAnt	12lTibPost	13LPeroneusLong	14LSol	15LExtDigLong	16LFlexDigLong	17RAddLong	18RGlutMax	19RGlutMed	20RIliopsoas	21RSemiMemb	22RBicFemLong	23RRecFem	24RVastMed	25RVastLat	26RGasMed	27RTibAnt	28RTibPost	29RPeroneusLong	30RSol	31RExtDigLong	32RFlexDigLong
6.185	0.002747	-0.011292	-0.31296	-0.004883	0.011597	0.022736	0.02243	0.005493	0.031128	0.069885	0.15915	0.014191	-0.001984	0.11429	0.27985	-0.000153	0.01297	0.018768	0.47821	-0.088959	0.011292	-0.55618	-0.02655	0.023499	-0.041046	-0.000458	0.03006	0.00473	-0.10788	0.19196	-0.000305	-0.014801
6.186	0.000916	0.008545	-0.2977	0.011292	0.005188	0.017395	-0.005341	0.015869	0.03006	0.15564	0.10681	0.013275	-0.004272	0.13519	0.17853	0.001984	0.016632	0.12024	0.76858	-0.11444	0.066986	-0.63263	-0.27847	0.11688	0.034332	-0.005493	0.062103	0.001678	-0.22537	0.1297	0.001526	-0.014038
6.187	-0.005188	0.061188	-0.31601	0.004578	0	0.031281	0.034027	0.006409	0.019684	0.16419	-0.005951	0.014038	-0.037231	0.12466	0.16068	0.000763	0.025482	0.053558	0.68222	-0.16876	0.005646	-0.71198	-0.20538	0.34653	0.13031	-0.00412	0.075073	-0.001221	-0.65506	0.078125	0.000458	-0.009155
6.188	-0.007324	0.008545	-0.33493	0.003204	-0.006409	0.018463	0.026703	0.005188	0.007477	0.15167	-0.085144	0.00824	-0.024414	0.032349	0.19104	-0.007019	0.055695	-0.017548	0.81039	-0.13397	0.24323	-0.63538	0.054626	0.35996	0.15198	-0.007782	-0.025635	0.001678	-0.26932	0.10819	-0.003815	-0.011902
6.189	-0.009918	0.015106	-0.33966	-0.007172	0.003204	0.019226	0.022888	0.010376	-0.000916	0.090942	-0.040741	0.011902	-0.011597	0.019073	0.15167	0.008545	0.054016	-0.032959	0.45563	-0.21622	0.22369	-0.49759	0.29083	0.22278	0.071564	-0.004272	-0.065613	0.002289	0.12405	0.095978	-0.001221	-0.013733
6.19	0.010834	0.030212	-0.35797	0.019684	-0.00473	-0.019073	0.025024	0.007782	0.000458	-0.10468	0.042267	0.011749	0.006561	-0.058289	-0.007019	0.001678	0.090637	0.039673	0.19516	-0.075684	-0.17761	-0.47546	0.40756	-0.025635	0.030212	-0.004578	-0.037689	0.00473	0.49515	0.030518	-0.001678	-0.007477
6.191	0.002441	0.050354	-0.38422	0.023804	-0.000763	-0.065613	0.042877	0.006866	0.001373	-0.13229	0.061035	0.007477	0.033417	-0.068207	0.081635	0.001984	0.19348	0.028687	0.012817	0.12039	-0.43854	-0.34882	0.37125	-0.35217	0.04715	-0.001068	-0.007019	-0.00412	-0.17334	-0.006256	-0.00061	-0.004425
6.192	0.003357	0.020752	-0.35996	0.010834	-0.008698	-0.020752	0.050659	0.006866	-0.019226	-0.071259	0.027161	0.008087	0.089264	0.007172	0.045471	0.00351	0.15289	0.049896	0.08667	0.30991	-0.032806	-0.16556	0.20569	-0.40695	0.13565	-0.00473	0.023804	0.001678	-0.27252	0.033417	-0.000305	-0.009918
6.193	0.002289	-0.002136	-0.36865	0.009918	-0.001831	-0.044403	0.020447	0.008545	-0.016632	-0.034485	-0.09964	0.016479	0.13763	0.061798	0.082397	0.002289	-0.054626	0.048065	0.4599	0.30975	-0.19501	0.05188	-0.024261	-0.20721	0.27115	0	0.043335	0	-0.32608	0.072784	0.000763	-0.008698
6.194	0.00351	-0.019379	-0.37064	0.010986	0.002747	-0.037994	0.008545	0.003357	-0.00061	-0.016785	-0.021667	0.005188	0.094757	0.057678	0.049591	-0.010529	-0.13596	0.032501	0.37506	0.23865	-0.29678	0.15396	-0.051727	-0.084229	0.26932	-0.004578	0.075836	-0.000916	-0.044403	0.047302	-0.002289	-0.00824
6.195	-0.002136	-0.015717	-0.38391	-0.004578	0.015717	-0.033875	0.015564	0.001678	-0.011597	-0.008698	0.13672	0.012512	0.00824	0.12222	1.8245	0.007629	-0.07843	0.026855	0.15076	0.18051	0.28091	0.39749	0.12421	0.10681	0.15762	-0.000458	0.097656	0.001373	0.70358	0.032043	-0.00061	-0.000916
6.196	-0.009003	-0.004272	-0.38879	0.002899	0.006256	-0.003052	0.046234	0.010071	-0.011292	0.029297	0.20569	0.005646	-0.095978	0.20538	-0.31754	-0.006256	-0.027618	0.019989	0.1831	0.11765	0.59784	0.67764	0.28336	0.021057	-0.005646	-0.00473	0.059967	0.001373	0.68161	0.013123	0.010681	-0.007782
6.197	-0.003662	-0.00946	-0.36575	-0.013123	0.006409	0.01297	0.046082	0.005493	-0.018463	-0.043793	0.15091	0.012512	-0.098877	0.20584	-0.2829	-0.002747	0.067749	0.002441	0.045471	0.049438	0.29831	0.54718	0.30807	0.077667	-0.14664	-0.003967	-0.050201	-0.000305	0.29755	-0.01358	-0.001373	-0.008545
6.198	-0.007324	-0.013428	-0.38452	0.012207	0.003052	-0.005493	0.050201	0.010986	-0.018311	-0.1532	-0.0354	0.008087	-0.027618	0.18906	-0.63294	-0.011902	0.11993	-0.032654	0.074768	0.010986	0.30685	0.26855	0.28061	-0.045013	-0.25482	-0.004883	-0.21622	0.001221	0.15121	-0.032349	0.003815	-0.023041
6.199	0.002747	-0.023804	-0.40741	-0.004425	0.00412	-0.03006	0.057068	0.009918	-0.015717	-0.15549	-0.16373	0.009918	0.20889	0.20218	-0.83572	-0.00061	0.11169	-0.005646	0.15305	-0.043488	0.42862	-0.16495	0.31143	-0.24109	-0.27985	0.002441	-0.41657	0.000153	0.19012	-0.070953	0.001221	-0.006409
6.2	-0.006409	-0.021515	-0.37674	0.008392	-0.004425	-0.022583	0.058289	0.004578	-0.028687	-0.11993	-0.087585	0.009613	0.15747	0.11658	-0.7579	-0.006104	0.097046	-0.011139	0.20218	-0.03891	0.35858	-0.25742	0.38788	-0.1709	-0.21896	0.005493	-0.40832	-0.001984	0.21454	-0.086365	-0.001221	-0.003052
6.201	-0.010223	-0.006256	-0.39246	0.018921	0.008392	-0.027008	0.096741	0.007629	-0.028229	-0.05188	0.025482	0.008087	-0.051422	-0.06958	-0.69138	-0.0177	0.073853	0.030518	0.06485	-0.016479	0.36835	-0.26749	0.36713	-0.033875	-0.0914	0.004578	-0.011444	-0.002899	0.18875	-0.083618	-0.001984	-0.005646
